<svg xmlns="http://www.w3.org/2000/svg" xmlns:xlink="http://www.w3.org/1999/xlink" width="465" height="1188" viewBox="0 0 465 1188">
  <defs>
    <clipPath id="clip-path">
      <rect id="Retângulo_5664" data-name="Retângulo 5664" width="465" height="1188" transform="translate(1452.732 7312.937)" fill="#fff" stroke="#707070" stroke-width="1"/>
    </clipPath>
  </defs>
  <g id="Linhas_7_dobra_direita" data-name="Linhas 7ª dobra direita" transform="translate(-1452.732 -7312.937)" clip-path="url(#clip-path)">
    <path id="Caminho_21999" data-name="Caminho 21999" d="M1793.518,866.9a15.335,15.335,0,0,0-22.988,2.659L1349.784,616.553l.239-.727-1.214.141-3.447-2.073,1.5,2.3-288.192,33.287a15.41,15.41,0,0,0-22.974-10.531L907.248,449.784a15.412,15.412,0,1,0-23.537-18.458L592.043,322.81A15.4,15.4,0,0,0,574.6,302.952L511.184,30.275A15.4,15.4,0,1,0,493.533,23.5L279.977,172.055a15.35,15.35,0,0,0-23.5-.724,15.342,15.342,0,0,0-3.21,5.575L30.7,120.581a15.437,15.437,0,1,0-14.882,13.067L33.045,327.742a15.4,15.4,0,0,0,3.339,30.591L77.3,674.01a15.4,15.4,0,1,0,18.37,15.853l210.924-3.4A15.4,15.4,0,0,0,331.88,697l349.464,363.869.727-.7,0,0a15.42,15.42,0,1,0,26.182,14.873l161.263,31.238a15.542,15.542,0,0,0-.074,2.338l-373.823,43.325a15.411,15.411,0,1,0-11.306,17.678l133.881,407.256a15.4,15.4,0,1,0,15.88,26.072L777.7,1746.1a15.416,15.416,0,1,0,25.96,4.567L946.1,1684.4a15.414,15.414,0,1,0,23.644-19.2c-.061-.055-.126-.1-.187-.152l121.129-170.874a15.377,15.377,0,0,0,23.474-8.636l200.547,41.712a15.425,15.425,0,1,0,20.342-12.395l49.241-177.826a15.389,15.389,0,0,0,18.534-15.908l257.587-30.839a15.416,15.416,0,1,0,10.87-17.607L1544.285,921.014a15.033,15.033,0,0,0,6.451-5.256l217.418-34.048a15.413,15.413,0,1,0,25.363-14.807M1348.886,619.286l179.986,275.286a15.222,15.222,0,0,0-3.97,4.4L1295.756,780.986ZM1212.139,1292.48a15.328,15.328,0,0,0-4.457-9.662L1528.1,919.3l.746-.116a15.37,15.37,0,0,0,3.1,1.815l-134,369.067Zm-.294,4.443,160.221,23.767a15.42,15.42,0,0,0,1.4,7.826l-118.818,65.543-49.44-87.493a15.2,15.2,0,0,0,6.638-9.643m-5.66-15.43a15.355,15.355,0,0,0-5.441-2.69l63.351-319.575,259.034-48.75a15.308,15.308,0,0,0,3.862,7.056Zm-24.8,13.055-231.324,28.168a15.307,15.307,0,0,0-8.431-11.01l55.229-135.968,186.2,110.928a15.372,15.372,0,0,0-1.674,7.881m341.731-391.19L1296.8,867.886a15.4,15.4,0,0,0-25.273-13.169l23.594-71.81,228.865,117.838a15.306,15.306,0,0,0-.879,2.613m-.309,5.148-258.29,48.611,14.937-75.356a15.382,15.382,0,0,0,17.052-11.9l225.4,35.327.893.14a15.439,15.439,0,0,0,.007,3.177m-251.669-30.574a15.363,15.363,0,0,0,6.356,3.435L1262.4,957.516l-178.227,33.542a15.29,15.29,0,0,0-1.221-3.188l185.88-112.56a15.423,15.423,0,0,0,2.307,2.623M1081.868,986.073a15.331,15.331,0,0,0-13.645-6.554l-6.384-88.125,204.441-22.246a15.361,15.361,0,0,0,1.51,4.444Zm-15.632-6.286a15.341,15.341,0,0,0-11.52,9.893L818.248,921.816a15.452,15.452,0,0,0,.343-3.955l241.259-26.251ZM898.148,1100.061l159.6-94.9a15.182,15.182,0,0,0,4.773,3.582l-66.648,164.085-97.315-57.975a15.407,15.407,0,0,0-.414-14.794m155.873-107.667a15.445,15.445,0,0,0-.06,4.589l-199.446,40.7-44.436-105.38a15.294,15.294,0,0,0,7.606-8.525Zm.345,6.545a15.292,15.292,0,0,0,2.151,4.633l-159.5,94.837a15.35,15.35,0,0,0-18.787-4.489l-22.92-54.357ZM896.3,1118.162a15.614,15.614,0,0,0,1.239-1.591l97.577,58.131-55.342,136.249a15.474,15.474,0,0,0-7.327-.586L889.258,1122.59a15.319,15.319,0,0,0,7.042-4.428m101.315,55.7,66.763-164.366a15.5,15.5,0,0,0,9.974-.078l115.472,270.514a15.342,15.342,0,0,0-4.507,3.424,15.627,15.627,0,0,0-1.239,1.592Zm78.573-165.239a15.314,15.314,0,0,0,8.343-15.6l177.447-33.395-63.192,318.781a15.515,15.515,0,0,0-7.126.732Zm-17.269-357.166,288.23-33.292-53.192,161.889-236.308-121.67a15.384,15.384,0,0,0,1.269-6.927m-2.182,8.705L1293.324,781.98l-23.8,72.425L1055.6,661.778a15.423,15.423,0,0,0,1.131-1.611m-2.47,3.094,215.1,193.689a15.327,15.327,0,0,0-3.312,10.214L1061.7,889.4l-16.074-221.909a15.342,15.342,0,0,0,8.644-4.23m-20.3,1.045a15.361,15.361,0,0,0,9.66,3.317l16.08,221.993L818.365,915.877a15.309,15.309,0,0,0-4.144-8.077ZM812.735,906.462a15.341,15.341,0,0,0-5.6-2.81L860.22,633.776,1028.1,651.6a15.367,15.367,0,0,0,4.376,11.366Zm-7.563-3.2A15.458,15.458,0,0,0,795.1,905.42L588.73,614.974c.266-.256.535-.509.785-.787a15.3,15.3,0,0,0,3.87-8.744l264.838,28.121ZM905.6,450.916l128.451,189.163a15.476,15.476,0,0,0-2,1.837,15.3,15.3,0,0,0-3.728,7.7L860.608,631.809,895.8,452.9a15.454,15.454,0,0,0,9.8-1.983m-21.011-5.321a15.363,15.363,0,0,0,9.25,6.916L858.611,631.6,593.462,603.442a15.4,15.4,0,0,0-1.476-6.182l89.481-46.381Zm-.914-1.777-16.258,8.428L591,595.521a15.267,15.267,0,0,0-11.161-6.942l-.851-136.069L882.469,439.3a15.411,15.411,0,0,0,1.206,4.521M562.736,605.478l-219.39,37.571,79.968-166.267A15.43,15.43,0,0,0,439.339,474l127.666,119.14c-.134.138-.277.263-.407.407a15.328,15.328,0,0,0-3.862,11.928m2.632-277.737-76.868,70.2-54.666,49.924a15.486,15.486,0,0,0-6.824-.619l33.544-179.359,102.224,45.187a15.4,15.4,0,0,0,2.589,14.666M440.735,472.573a15.361,15.361,0,0,0,3.184-14.182l133.07-5.794.849,135.884a15.374,15.374,0,0,0-9.346,3.317ZM588.826,328.413a15.37,15.37,0,0,0,2.49-3.742L883.025,433.2a15.378,15.378,0,0,0-.647,4.1l-303.4,13.211-.731-117.039a15.368,15.368,0,0,0,10.582-5.059m-12.582,5.032.732,117.154-133.753,5.823a15.24,15.24,0,0,0-7.34-7.72l68.892-62.916,61.944-56.571c.111.1.208.219.323.321a15.355,15.355,0,0,0,9.2,3.91M509.238,30.733l63.421,272.7a15.228,15.228,0,0,0-9.094,7.8L460.932,265.871,504.891,30.823a15.519,15.519,0,0,0,4.347-.091m-14.549-5.6a15.572,15.572,0,0,0,1.718,1.846,15.36,15.36,0,0,0,6.516,3.482L459.054,265.039,282.409,186.957a15.422,15.422,0,0,0-1.278-13.271Zm-215.3,166.835a15.351,15.351,0,0,0,2.2-3.189l177.082,78.278L424.894,447.688a15.339,15.339,0,0,0-4.569,2.139l-55.3-98.06L276.354,194.545a15.4,15.4,0,0,0,3.039-2.576m-4.775,3.567L418.731,451.069a15.591,15.591,0,0,0-1.12,1.12,15.33,15.33,0,0,0-2.969,4.894L192.13,389.514,263.545,196.4a15.478,15.478,0,0,0,11.073-.866m-17.008-2.445a15.41,15.41,0,0,0,4.056,2.628L190.212,388.932l-139.8-42.45a15.43,15.43,0,0,0-1.809-11.463L255.88,191.229a15.483,15.483,0,0,0,1.729,1.861M35.038,327.578,17.81,133.483a15.338,15.338,0,0,0,12.452-10.952l222.52,56.315a15.408,15.408,0,0,0,1.944,10.751L47.454,333.386a15.19,15.19,0,0,0-12.416-5.808M79.284,673.746,38.365,358.068a15.3,15.3,0,0,0,11.463-9.679l139.691,42.419L84.657,674.362a15.47,15.47,0,0,0-5.373-.616M92.62,679.9a15.338,15.338,0,0,0-6.084-4.852l104.9-283.654,222.617,67.6a15.429,15.429,0,0,0,1.581,11.053Zm1.085,1.678L416.718,471.724a15.2,15.2,0,0,0,4.791,4.2l-80.581,167.54L95.263,685.532a15.343,15.343,0,0,0-1.558-3.957m216.79-6.675a15.314,15.314,0,0,0-3.944,9.568l-210.925,3.4c-.009-.121-.023-.242-.036-.364l244.276-41.832L327.71,670.944a15.424,15.424,0,0,0-17.215,3.957m21.784-1.122a15.507,15.507,0,0,0-2.763-1.975l12.768-26.546,220.778-37.808c.01.042.014.084.025.126L336.3,679.613a15.324,15.324,0,0,0-4.025-5.834m350.493,385.688L333.329,695.621c.027-.029.057-.053.084-.084a15.368,15.368,0,0,0,3.51-14.025l226.784-72.038a15.4,15.4,0,0,0,18.116,9.336L689.577,1055.6a15.322,15.322,0,0,0-6.805,3.862m8.771-4.243L583.727,618.184a15.276,15.276,0,0,0,3.479-1.9L619.978,662.4l173.493,244.18a15.291,15.291,0,0,0-.609,23.389c.2.177.406.33.61.495l-90.778,127.643a15.4,15.4,0,0,0-11.151-2.888m17.087,12.237a15.315,15.315,0,0,0-4.411-8.042L795.1,931.634a15.451,15.451,0,0,0,13.144,1.456l44.277,105.006Zm161.2,36.85L708.713,1073.1a15.39,15.39,0,0,0,.189-3.659l144.407-29.471,23.167,54.939a15.257,15.257,0,0,0-6.65,9.4m-249.755,471.9L486.2,1168.994a15.347,15.347,0,0,0,9.654-15.064l373.824-43.324a15.189,15.189,0,0,0,6.987,10.285L630.808,1576.983a15.468,15.468,0,0,0-10.737-.777m15.509,4.214c-.282-.3-.568-.6-.879-.875a15.388,15.388,0,0,0-2.142-1.6l245.865-456.1a15.456,15.456,0,0,0,8.886,1.191L930.5,1310.82a15.365,15.365,0,0,0-7.916,23.985Zm312.378,85.9a15.376,15.376,0,0,0-2.743,16.285l-142.4,66.248a15.393,15.393,0,0,0-23.7-4.173L635.541,1601.6c.1-.1.2-.191.294-.3a15.392,15.392,0,0,0,1.028-19.352L923.9,1336.313c.228.234.449.472.7.694a15.366,15.366,0,0,0,10.42,3.947l22.844,320.376a15.346,15.346,0,0,0-9.9,4.992m19.193-3.006a15.378,15.378,0,0,0-7.3-2.065l-22.848-320.427a15.38,15.38,0,0,0,13.3-16.126l231.325-28.169a15.194,15.194,0,0,0,6.21,9.7Zm10.323-12.9,106.969-173.077a15.383,15.383,0,0,0,4.537,15.523c.036.034.077.061.115.093Zm111.538-180.471,93.9-151.937L1104.9,1467.083a15.431,15.431,0,0,0-15.885,2.863m23.008,2.789a14.97,14.97,0,0,0-5.307-4.805l83.823-160.17a15.472,15.472,0,0,0,12.934-.2l49.426,87.467Zm206.5,46.353a15.3,15.3,0,0,0-3.395,6.208l-200.546-41.711a15.438,15.438,0,0,0-1.536-9.13l140.837-77.689,67.669,119.753a15.389,15.389,0,0,0-3.028,2.569m20.327-25.45-5.732,20.7a15.47,15.47,0,0,0-9.829,1.19L1255.63,1395.8l118.817-65.541a15.315,15.315,0,0,0,7.907,6.253Zm37.116-182a15.293,15.293,0,0,0-3.609,7.074l-160.221-23.766c.013-.157.035-.313.043-.47l185.032-2.4-5.485,15.106a15.417,15.417,0,0,0-15.76,4.458m26.6,7.5a15.323,15.323,0,0,0-8.962-11.284l5.741-15.808,257.427-3.342Zm266.827-45.792a15.341,15.341,0,0,0-9.24,13.317l-260.08,3.376,133.748-368.364a15.481,15.481,0,0,0,8.579.011Zm98.454-393.612-215.8,33.8a15.413,15.413,0,0,0-21.5-20.046L1351.809,620.1,1769.5,871.275a15.352,15.352,0,0,0-1.651,8.46" transform="translate(3593.895 8904.887) rotate(168)" fill="#afdadb"/>
    <path id="Caminho_22001" data-name="Caminho 22001" d="M1648.456,1910.29a10.838,10.838,0,0,0-9.61-7.914l-4.066-250.637a10.827,10.827,0,1,0-6.622-20.105l-80.949-113.387a10.826,10.826,0,1,0-15.979-14.352l-133.3-75.079a10.818,10.818,0,0,0-4.182-13.6l161.465-323.169a10.825,10.825,0,1,0-3.32-18.125l-321.079-296.7a10.832,10.832,0,0,0-6.85-20.52,10.978,10.978,0,0,0-1.509.552L1143.9,617.011a10.806,10.806,0,0,0,.592-17.375L1255.7,429.7l1.384,2.372-.313-4.009.668-1.022-.757-.112-26.8-343.465c.351-.06.7-.137,1.05-.234a10.844,10.844,0,1,0-9.957-2.253l-89.889,125.931c-.288.055-.575.112-.862.191a10.77,10.77,0,0,0-3.826,1.933L945.283,18.538a10.841,10.841,0,1,0-14.92,1.3L830.027,171.772a10.786,10.786,0,0,0-15.472,6.466L687.274,153.087a10.821,10.821,0,1,0-14.483,9.045L635.984,301.148a10.78,10.78,0,0,0-12.544,11.763L477.958,335.068a10.818,10.818,0,1,0-19.609,8.651l-86.433,68.512a10.8,10.8,0,0,0-13.554-1.712L256.746,276.877a10.827,10.827,0,1,0-17.753-5.1,10.628,10.628,0,0,0,.424,1.222L20.161,387.394a10.838,10.838,0,1,0-1.925,13.983L282.193,649.716a10.828,10.828,0,1,0,19.332,3.3,10.97,10.97,0,0,0-.612-1.642l106.6-69.6a10.82,10.82,0,0,0,15.319,2L636.739,796.125a10.841,10.841,0,1,0,17.046.458L757.6,703.793a10.813,10.813,0,0,0,10.241,2.523l-.94.334,118.886,333.921a10.806,10.806,0,0,0-1.3,18.9l-68.429,131.307a10.824,10.824,0,1,0,4.289,16.866l185.567,125.165a10.822,10.822,0,0,0,18.138,11.711l116.612,72a10.8,10.8,0,0,0,14.31,14.6l131.909,213.9a10.833,10.833,0,0,0,2.34,18.43l-51.445,164.474a10.827,10.827,0,1,0,.421,20.982c.042-.012.082-.029.124-.04l60.026,118.289,31.732,62.532a10.828,10.828,0,1,0,17.349,9.566l153.282-17.788c.035.148.058.3.1.448a10.821,10.821,0,1,0,19.051-9.4l110.517-91.69a10.812,10.812,0,0,0,18.081-10.516m-304.691,119.841a10.813,10.813,0,0,0-11.991-1.524l-35.977-70.9-55.609-109.584a10.745,10.745,0,0,0,2.541-1.781l170.262,110.978ZM1018.2,1327.559l17.2-100.835,143.616,16.026a10.406,10.406,0,0,0,.889,4.474l-155.526,84.752a10.868,10.868,0,0,0-6.18-4.417M822.784,1200.988a10.525,10.525,0,0,0-1.025-4.774l233.412-136.553a10.859,10.859,0,0,0,5.989,4.148l-27.415,160.72ZM846.321,184.828l-58.7,113.5L822.52,191.862a10.8,10.8,0,0,0,12.994-8.3ZM940.013,21.851a10.766,10.766,0,0,0,3.826-1.932l181.121,190.5a10.844,10.844,0,0,0-2.431,4.875L849.424,183.182,933.071,21.434a10.77,10.77,0,0,0,6.943.418M1548.381,1080.7a10.775,10.775,0,0,0,.224,3.73l-169.468,56.686a10.83,10.83,0,0,0-12.774-6.078l-.006,0L1327.965,1033.8Zm-35.8,927.584c-.23-.029-.464-.044-.7-.059L1524,1853a10.677,10.677,0,0,0,8.465-4.28l26.79,16.655Zm-7.25-406.541-3.795-46.74c.339-.058.678-.132,1.016-.225a10.748,10.748,0,0,0,5.276-3.32l28.278,20.4-12.5,254.94Zm-5.787-46.583,13.271,163.456,9.166,112.9c-.339.06-.678.132-1.016.225a10.747,10.747,0,0,0-4.825,2.842L1357.462,1704.76l135.77-151.733a10.827,10.827,0,0,0,6.309,2.134m33.981,291.859a10.8,10.8,0,0,0-3.641-13.812l99.406-182.217L1559.9,1863.418Zm89.652-203.163a10.8,10.8,0,0,0,4.4,6.1l-99.446,182.289a10.838,10.838,0,0,0-2.755-.782l12.664-258.209,86.246,62.231a10.785,10.785,0,0,0-1.107,8.37m2.273-9.993-87.294-62.986,2.453-50.01a10.515,10.515,0,0,0,4.978-1.46l80.95,113.385a10.936,10.936,0,0,0-1.086,1.071m-92.879-116.086a10.874,10.874,0,0,0,6.041,2.995l-2.388,48.711-27.229-19.647a10.774,10.774,0,0,0-.467-11.692Zm-42.745,22.054-129.63-45.412,24.661-59.69a10.772,10.772,0,0,0,9.805-1.761l96.932,104.16a10.862,10.862,0,0,0-1.768,2.7m-328.661-118.689a10.711,10.711,0,0,0-2.924-7.219l91.076-115.17,130.108,119.1a10.834,10.834,0,0,0-2.141,5.436ZM768.376,685.6l31.009-110.933a10.665,10.665,0,0,0,7.441-1.119l27.125,31.7-63.764,81.151a10.889,10.889,0,0,0-1.812-.8M368.432,429.621a10.811,10.811,0,0,0,6.2-7.426l71.285,9.992L417,564.466a10.754,10.754,0,0,0-3.745.341Zm50.536,135.191L447.9,432.464l221.784,31.088a10.817,10.817,0,0,0,.377,3.378c.036.127.084.247.123.372L425.585,570a10.843,10.843,0,0,0-6.616-5.188m939.846,583.539a10.818,10.818,0,0,0,.5,1.387l-160.495,87.194a10.859,10.859,0,0,0-7.475-4.7l6.408-135.069,160.869,46.3a10.769,10.769,0,0,0,.194,4.891m-169.468,83.789a10.5,10.5,0,0,0-4.711,1.318l-115.2-170.764a10.76,10.76,0,0,0,2.291-1.8l124.051,35.7ZM1073.065,1059.2a10.84,10.84,0,0,0,1.528-3.871l106.67-40.79,10.328-3.95a10.846,10.846,0,0,0,7.987,5.92l-3.7,78.035Zm117.8-50.5.007.021-10.285,3.933-105.823,40.465a10.717,10.717,0,0,0-2.331-6.482l45.593-81.922,73.165,37.257a10.771,10.771,0,0,0-.325,6.727m168.3,132.838-161.324-46.428,3.723-78.469a10.693,10.693,0,0,0,7.258-3.024l151.485,125.742a10.868,10.868,0,0,0-1.142,2.179M1224.7,777.745l-23.447,217.266a10.708,10.708,0,0,0-9.179,5.17L1119,962.972,1222.48,777.044a10.855,10.855,0,0,0,2.217.7m-107.48,184.319L1032.2,918.77a10.743,10.743,0,0,0-.813-8.65l113.749-82.487,73.585-53.361a10.851,10.851,0,0,0,2.015,1.8Zm11.788-734.515-30.169,94.67-18.647,58.513a10.783,10.783,0,0,0-12.437,6.741L1016.1,373.208l111.445-146.4a11.035,11.035,0,0,0,1.463.737M897.863,664.556l31.654-169.794a10.734,10.734,0,0,0,9.355-3.9l53.175,31.653L899.9,665.371a10.8,10.8,0,0,0-2.039-.815m42.131-175.349a10.826,10.826,0,0,0,.168-10.106l129.125-81.217a10.757,10.757,0,0,0,1.91,1.922L993.129,520.836ZM1067.223,389.4a10.781,10.781,0,0,0,.994,6.789l-46.133,28.99-83.031,52.176a10.779,10.779,0,0,0-1.229-1.323l76.97-101.11ZM936.232,474.82a10.747,10.747,0,0,0-11.933.3L790.538,317.4a10.863,10.863,0,0,0,2.385-3.744l219.794,60.694ZM785.69,320.264a10.734,10.734,0,0,0,3.324-1.575L922.776,476.416a10.843,10.843,0,0,0-2.924,5.723l-124.045-9.89L784.6,320.5a10.882,10.882,0,0,0,1.093-.241M919.7,484.131a10.8,10.8,0,0,0,.38,2.732c.076.275.171.54.266.8L810.489,557.94a10.85,10.85,0,0,0-8.7-4.683l-5.836-78.991ZM812.023,561.207a10.743,10.743,0,0,0-.557-1.517l109.736-70.2a10.731,10.731,0,0,0,1.871,2.346L835.21,603.654l-26.72-31.23a10.814,10.814,0,0,0,3.534-11.217m112.622-68.136a10.917,10.917,0,0,0,2.364,1.16L895.865,664.183a10.649,10.649,0,0,0-7.205,1.937L836.536,605.2Zm94.4,411.838c-.156.043-.3.1-.456.15L948.9,774.215l-48.042-90.207a10.822,10.822,0,0,0,4.161-5.2l185.872,51.619-65.417,174.7a10.755,10.755,0,0,0-6.433-.219M905.026,671.136a10.772,10.772,0,0,0-3.445-4.68L993.765,523.54l134.229,79.9a10.772,10.772,0,0,0-.881,6.549Zm223.986-69.412L994.848,521.86l78.029-120.97a10.768,10.768,0,0,0,6.9,1.07l54.151,196.008a10.749,10.749,0,0,0-4.918,3.755M1088.3,388.431a10.82,10.82,0,0,0-6.211-7.086l13.6-42.664,35.228-110.542a10.815,10.815,0,0,0,1.326.189l2.147,180.393-51.733-7.705a10.814,10.814,0,0,0,5.647-12.585m34.723-166.967a10.785,10.785,0,0,0,2.9,4.166L1014.022,372.635,793.453,311.727a10.731,10.731,0,0,0,.029-3.675ZM782.6,320.647l11.189,151.442L691.31,463.918a10.716,10.716,0,0,0-4.03-8.277l90.408-136.292a10.82,10.82,0,0,0,4.915,1.3M691.154,465.911l102.787,8.195L799.8,553.4a10.945,10.945,0,0,0-1.093.241,10.757,10.757,0,0,0-4.791,2.8l-104.471-86.29a10.834,10.834,0,0,0,1.71-4.242m80.69,221.626,63.434-80.731,51.864,60.614a10.82,10.82,0,0,0-3.038,8.19l-108.922,16.76a10.773,10.773,0,0,0-3.337-4.832m3.816,6.782,108.759-16.735c.021.081.033.164.056.247a10.838,10.838,0,0,0,13.317,7.568,11.01,11.01,0,0,0,1.3-.459L1006.548,886.7l10.194,19.141a10.728,10.728,0,0,0-1.805,1.237L774.091,701.676a10.78,10.78,0,0,0,1.569-7.356M1031.393,920.6l84.853,43.209-45.261,81.325a10.811,10.811,0,0,0-9.4-2.328l-34.805-117.775a10.78,10.78,0,0,0,4.613-4.43m168.875,319.478a11.059,11.059,0,0,0-.5-1.386l160.494-87.195a10.791,10.791,0,0,0,1.524,1.8l-112.71,142.529-50.621-46.338a10.8,10.8,0,0,0,1.811-9.412m184.889,173.874a10.756,10.756,0,0,0-4.392,2.426l-130.209-119.2,112.8-142.641a10.816,10.816,0,0,0,5.62,1.761l17.344,257.4a11.036,11.036,0,0,0-1.163.249m-20.666-278.2a10.728,10.728,0,0,0-2.9,2.073L1210.13,1012.1a10.862,10.862,0,0,0,1.5-3.053l114.009,24.259ZM1212.05,1007.095a10.817,10.817,0,0,0-8.808-11.906l23.443-217.224a10.787,10.787,0,0,0,2.062-.163l96.052,253.283Zm4.364-237.079a10.876,10.876,0,0,0,1.132,2.636L1030.264,908.463a10.846,10.846,0,0,0-2.964-2.507l65.526-175L1216.2,765.224a10.78,10.78,0,0,0,.212,4.792m-124.818-41.471L905.552,676.878a10.714,10.714,0,0,0,.006-3.814l222.087-61.146a10.813,10.813,0,0,0,5.407,5.909Zm44.261-131.106-53.729-194.48,52.288,7.788,2.221,186.589c-.26.028-.52.057-.78.1m-1.614-369.133a10.029,10.029,0,0,0,3.439-.949L1253.84,426.51l-117.448-17.491Zm-11.948-11.026a10.785,10.785,0,0,0,.115,1.8l-.422.592L792.963,306.121a10.786,10.786,0,0,0-4.325-5.4l59.805-115.645ZM686.887,155.048,814.167,180.2a10.622,10.622,0,0,0,1.322,6.375L737.2,240.307l-53.832-79.942a10.845,10.845,0,0,0,3.522-5.317m129.73,33.176a10.871,10.871,0,0,0,4.006,3.008l-35.41,108.037a10.725,10.725,0,0,0-7.6,1.057l-39.3-58.359ZM775.954,301.437A10.837,10.837,0,0,0,772.021,309L645,311.121a10.859,10.859,0,0,0-1.2-4.286L736.668,243.1ZM644.941,313.122l109.9-1.832L639.008,321.517a10.822,10.822,0,0,0,5.933-8.4m127.224-1.355c.057.31.121.62.206.928a10.786,10.786,0,0,0,3.651,5.546L685.615,454.533a10.785,10.785,0,0,0-13.876,3.163L477.5,342.367a10.767,10.767,0,0,0,.875-4.658ZM670.722,459.417a10.873,10.873,0,0,0-.764,2.155L448.332,430.507l17.861-81.7a10.8,10.8,0,0,0,10.345-4.686ZM464.245,348.362l-17.9,81.867L374.9,420.214a10.82,10.82,0,0,0-1.746-6.414l86.393-68.481a10.883,10.883,0,0,0,4.695,3.043M353.661,422.58a10.83,10.83,0,0,0,12.875,7.666l44.638,134.635-154.65-285,100.25,131.847a10.813,10.813,0,0,0-3.113,10.849M252.31,279.34a10.74,10.74,0,0,0,1.378-.493L409.774,566.49a10.81,10.81,0,0,0-3.153,3.6L276.455,511.538,251.568,279.505c.247-.05.494-.1.742-.165M426.567,572.376c-.051-.186-.119-.362-.179-.544L670.955,469.149a10.852,10.852,0,0,0,7.428,5.519l-9.637,92.257-241.883,7a10.8,10.8,0,0,0-.3-1.55m253.8-97.5a10.722,10.722,0,0,0,7.8-3.186l104.471,86.29a10.83,10.83,0,0,0-1.848,5.407l-120.032,3.474ZM790.86,565.391a10.6,10.6,0,0,0,4,7.145l-144.7,220.921A10.853,10.853,0,0,0,647.2,792.4l23.349-223.529ZM651.826,794.554l144.7-220.921q.463.246.947.446l-31.048,111.07A10.808,10.808,0,0,0,756.266,702.3l-103.815,92.79c-.2-.188-.41-.367-.625-.539m121.044-91.3,240.665,205.254a10.789,10.789,0,0,0,.164,13.847l-116.56,119.619a10.8,10.8,0,0,0-9.469-2.08L768.791,706a10.711,10.711,0,0,0,4.078-2.742m127.906,344.255a10.777,10.777,0,0,0-2.205-4.139l113.99-116.982-90.867,123.53-20.562-.353a10.84,10.84,0,0,0-.357-2.058m115.578-122.9a10.785,10.785,0,0,0,8.457,1.176c.034-.009.067-.023.1-.033l34.772,117.662a10.81,10.81,0,0,0-6.482,8.759l-129.055-2.213Zm36.813,129.563a10.417,10.417,0,0,0,1,3.757L820.75,1194.489a10.784,10.784,0,0,0-1.6-1.783L922.694,1051.94Zm9.964,9.971a10.774,10.774,0,0,0,3.709-.345c.262-.072.512-.163.763-.252l115.373,171.022a10.84,10.84,0,0,0-3.738,6.191l-143.5-16.013ZM1188.5,1253.7a10.767,10.767,0,0,0,8.61-2.729l50.724,46.431-91.1,115.2a10.861,10.861,0,0,0-2.773-1.47Zm-27.488,169.444,216.248,2.146a10.759,10.759,0,0,0,5.746,8.676l-24.7,59.8-197.619-69.229a10.611,10.611,0,0,0,.329-1.389m198.415,73.129,129.737,45.45a10.773,10.773,0,0,0,.067,5.492,11,11,0,0,0,.451,1.281l-149.451,79.141-37.642,19.932a10.824,10.824,0,0,0-4.151-3.684ZM1304,1650.659a10.685,10.685,0,0,0-.472-1.326l187.084-99.069a10.778,10.778,0,0,0,1.126,1.434l-135.828,151.8-53.472-43.748a10.8,10.8,0,0,0,1.561-9.086m52.127,55.591,158.744,129.879a10.834,10.834,0,0,0-1.79,4.975L1246.1,1839.2a10.781,10.781,0,0,0-2.283-7.429ZM1244.06,1844.828a10.876,10.876,0,0,0,1.716-3.634l267.294,1.91a10.649,10.649,0,0,0,2.636,6.189l-101.315,106.558Zm273.1,5.842a10.846,10.846,0,0,0,4.856,2.171L1509.871,2008.3a11.031,11.031,0,0,0-1.515.291,10.753,10.753,0,0,0-6.157,4.5l-86.1-56.122Zm-2.618,158.054,46.469-142.264,67.34,41.863a10.762,10.762,0,0,0,.752,10.943l-110.6,91.754a10.881,10.881,0,0,0-3.965-2.3m122.31-106.315a10.6,10.6,0,0,0-7.448,4.216l-67.753-42.12,69.564-212.963a10.816,10.816,0,0,0,1.573.229Zm-106.6-396.775a10.784,10.784,0,0,0,1.027,10.617l-24.043,20.368a10.8,10.8,0,0,0-14.183-.853l-96.934-104.158a10.955,10.955,0,0,0,.832-1.052Zm-138.289-91.317a10.773,10.773,0,0,0-3.646-.746l-17.343-257.4a11.231,11.231,0,0,0,1.162-.249,10.808,10.808,0,0,0,7.64-12.907l169.468-56.684a10.8,10.8,0,0,0,4.185,4.819Zm158.58-338.929a10.844,10.844,0,0,0-1.74,3.358l-221.676-47.166L1232.169,781.2Zm-329.83-317.16a10.81,10.81,0,0,0-3.973,5.071l-123.207-34.216,41.395-110.552a10.527,10.527,0,0,0,7.234-.547ZM1142.821,598.54a10.809,10.809,0,0,0-4.187-1.227l-2.218-186.27,117.644,17.52Zm79.789-516.4a10.8,10.8,0,0,0,5.286,1.475l26.52,339.915-115.01-197.18a10.824,10.824,0,0,0-5.732-19.614Zm-295-54.51L847.3,182.932l-11.553-1.359a10.791,10.791,0,0,0-4.054-8.7ZM674.723,162.645a10.631,10.631,0,0,0,6.983-1.169l53.846,79.961-92.831,63.714a10.873,10.873,0,0,0-4.8-3.489Zm-50.9,152.229a10.826,10.826,0,0,0,7.378,7.333L499.088,333.873Zm-383.489-40.1a10.849,10.849,0,0,0,9.245,4.946l24.761,230.871L21.313,396.776a10.665,10.665,0,0,0-.233-7.605ZM19.6,399.92A10.8,10.8,0,0,0,20.5,398.6L274.589,512.891l14.2,132.427c-.2.042-.391.075-.586.129a10.743,10.743,0,0,0-4.727,2.738ZM299.911,649.638a10.842,10.842,0,0,0-9.136-4.565L276.7,513.84l129.132,58.084a10.791,10.791,0,0,0,.618,8.147ZM424.274,582.39a10.836,10.836,0,0,0,2.657-6.466l241.607-6.993-23.32,223.259a10.7,10.7,0,0,0-7.071,2.518Zm468.953,478.437a10.807,10.807,0,0,0,7.87-9.257l19.144.328L818.851,1189.735l67.4-129.339a10.756,10.756,0,0,0,6.973.431m-71.769,145.158a10.835,10.835,0,0,0,1.1-3.011l210.847,23.528-17.18,100.719a10.719,10.719,0,0,0-9.2,3.93Zm203.635,136.831a10.779,10.779,0,0,0,.742-7.682,10.993,10.993,0,0,0-.5-1.4l155.528-84.751a10.864,10.864,0,0,0,5.691,4.277l-34.525,157.376a10.746,10.746,0,0,0-10.319,4.178Zm131.6,87.28a10.79,10.79,0,0,0,3.227-3.718l197.621,69.23-60.954,147.539a10.758,10.758,0,0,0-5.9-.056,10.876,10.876,0,0,0-2.124.838Zm134.42,233.98a10.807,10.807,0,0,0,10.038-2.808l53.431,43.715-112.146,125.332a10.923,10.923,0,0,0-2.764-1.764Zm56.3,373.155a10.668,10.668,0,0,0-2.264-5.651l69.546-73.145,86.561,56.421a10.772,10.772,0,0,0-.824,4.617Z" transform="matrix(0.602, -0.799, 0.799, 0.602, 1104.732, 8227.401)" fill="#afdadb" opacity="0.33"/>
  </g>
</svg>
