<svg xmlns="http://www.w3.org/2000/svg" xmlns:xlink="http://www.w3.org/1999/xlink" width="458" height="1187" viewBox="0 0 458 1187">
  <defs>
    <clipPath id="clip-path">
      <rect id="Retângulo_5663" data-name="Retângulo 5663" width="458" height="1187" transform="translate(-2.268 7314.468)" fill="#fff" stroke="#707070" stroke-width="1"/>
    </clipPath>
  </defs>
  <g id="Linhas_7_dobra_esquerda" data-name="Linhas 7ª dobra esquerda" transform="translate(2.268 -7314.468)" clip-path="url(#clip-path)">
    <path id="Caminho_21992" data-name="Caminho 21992" d="M25.753,26.882A15.425,15.425,0,1,1,26.882,5.1a15.426,15.426,0,0,1-1.129,21.785" transform="matrix(0.174, -0.985, 0.985, 0.174, -1184.924, 7994.401)" fill="#afdadb"/>
    <path id="Caminho_21993" data-name="Caminho 21993" d="M25.753,26.882A15.425,15.425,0,1,1,26.882,5.1a15.426,15.426,0,0,1-1.129,21.786" transform="matrix(0.174, -0.985, 0.985, 0.174, -1420.514, 7368.842)" fill="#afdadb"/>
    <path id="Caminho_21994" data-name="Caminho 21994" d="M1793.391,906.127a15.335,15.335,0,0,1-22.99-2.668l-420.7,253.21.24.728-1.215-.142-3.446,2.074,1.5-2.3-288.216-33.4a15.4,15.4,0,0,1-22.972,10.538L907.181,1323.527A15.419,15.419,0,1,1,883.647,1342L591.992,1450.576a15.4,15.4,0,0,1-17.441,19.878l-63.346,273a15.415,15.415,0,1,1-17.65,6.776L279.947,1601.435a15.4,15.4,0,0,1-26.715-4.864L30.669,1652.907a15.436,15.436,0,1,1-14.886-13.087l17.178-194.329a15.419,15.419,0,0,1,3.331-30.628l40.838-316.056A15.416,15.416,0,1,1,95.5,1082.94l210.937,3.457a15.4,15.4,0,0,1,25.282-10.536L681.1,711.634l.727.7,0,0a15.425,15.425,0,1,1,26.18-14.884l161.263-31.234a15.587,15.587,0,0,1-.074-2.341L495.339,620.39a15.417,15.417,0,1,1-11.311-17.7L617.81,194.964a15.413,15.413,0,1,1,15.874-26.1l143.6-143.281a15.42,15.42,0,1,1,25.96-4.566L945.709,87.4a15.425,15.425,0,1,1,23.651,19.229c-.061.055-.126.1-.187.152L1090.352,277.9a15.383,15.383,0,0,1,23.477,8.653l200.548-41.71a15.422,15.422,0,1,1,20.346,12.415l49.29,178.058a15.406,15.406,0,0,1,18.539,15.932l257.61,30.944a15.422,15.422,0,1,1,10.875,17.632L1544.13,851.883a15.049,15.049,0,0,1,6.453,5.264L1768.022,891.3a15.421,15.421,0,1,1,25.368,14.832M1348.8,1153.933l179.924-275.579a15.245,15.245,0,0,1-3.971-4.4L1295.624,992.019Zm-136.931-674.06a15.346,15.346,0,0,1-4.454,9.673L1527.94,853.592l.746.117a15.358,15.358,0,0,1,3.1-1.816L1397.678,482.336Zm-.3-4.448L1371.8,451.67a15.452,15.452,0,0,1,1.4-7.835L1254.352,378.18l-49.42,87.588a15.223,15.223,0,0,1,6.641,9.657m-5.656,15.448a15.342,15.342,0,0,1-5.44,2.692l63.438,319.986,259.061,48.878a15.321,15.321,0,0,1,3.861-7.063Zm-24.809-13.077L949.763,449.531a15.311,15.311,0,0,1-8.429,11.021L996.6,596.7l186.182-111.017a15.411,15.411,0,0,1-1.676-7.891M1522.96,869.556l-226.312,35.456a15.4,15.4,0,0,1-25.271,13.179l23.615,71.9L1523.84,872.172a15.347,15.347,0,0,1-.879-2.616m-.311-5.155-258.317-48.739,14.958,75.453a15.4,15.4,0,0,1,17.056,11.918l225.4-35.311.893-.14a15.477,15.477,0,0,1,.006-3.181m-251.675,30.546a15.346,15.346,0,0,1,6.355-3.437l-15.116-76.247-178.246-33.63a15.32,15.32,0,0,1-1.22,3.192l185.92,112.748a15.416,15.416,0,0,1,2.306-2.625m-189.3-108.324a15.319,15.319,0,0,1-13.644,6.558l-6.361,88.232,204.458,22.327a15.386,15.386,0,0,1,1.509-4.449Zm-15.631,6.289A15.36,15.36,0,0,1,1054.516,783L818.052,850.89a15.489,15.489,0,0,1,.344,3.96l241.28,26.347ZM897.91,672.446,1057.547,767.5a15.179,15.179,0,0,1,4.772-3.585l-66.695-164.3L898.32,657.634a15.441,15.441,0,0,1-.41,14.812m155.91,107.841a15.475,15.475,0,0,1-.062-4.595L854.291,734.885l-44.411,105.5a15.319,15.319,0,0,1,7.609,8.537Zm.343-6.553a15.306,15.306,0,0,1,2.15-4.638l-159.537-95a15.337,15.337,0,0,1-18.787,4.489l-22.907,54.418ZM896.056,654.323a15.628,15.628,0,0,1,1.239,1.593l97.567-58.177-55.38-136.432a15.456,15.456,0,0,1-7.327.585l-43.142,188a15.328,15.328,0,0,1,7.043,4.435m101.306-55.746,66.81,164.586a15.481,15.481,0,0,1,9.975.081l115.408-270.817a15.356,15.356,0,0,1-4.508-3.429,15.67,15.67,0,0,1-1.239-1.594Zm78.62,165.464a15.344,15.344,0,0,1,8.348,15.626L1261.8,813.148l-63.279-319.191a15.5,15.5,0,0,1-7.127-.735Zm-17.177,357.6,288.255,33.408-53.237-162.1-236.289,121.758a15.422,15.422,0,0,1,1.271,6.936m-2.184-8.717,236.57-121.9L1269.375,918.5,1055.49,1111.312a15.431,15.431,0,0,1,1.132,1.613m-2.471-3.1,215.062-193.871a15.364,15.364,0,0,1-3.315-10.227l-204.376-22.317-16.017,222.178a15.346,15.346,0,0,1,8.646,4.238m-20.3-1.052a15.343,15.343,0,0,1,9.66-3.319l16.023-222.262L818.17,856.837a15.324,15.324,0,0,1-4.143,8.086ZM812.543,866.262a15.324,15.324,0,0,1-5.6,2.812L860.1,1139.3l167.889-17.8a15.388,15.388,0,0,1,4.373-11.378Zm-7.563,3.2A15.449,15.449,0,0,1,794.9,867.3l-206.3,290.75c.266.256.535.51.786.788a15.339,15.339,0,0,1,3.872,8.756l264.845-28.087Zm100.553,452.929,128.409-189.363a15.491,15.491,0,0,1-2-1.839,15.336,15.336,0,0,1-3.73-7.712L860.49,1141.266l35.242,179.139a15.445,15.445,0,0,1,9.8,1.988m-21.011,5.322a15.356,15.356,0,0,1,9.248-6.922l-35.277-179.316L593.337,1169.6a15.432,15.432,0,0,1-1.474,6.189l89.5,46.461Zm-.914,1.779-16.261-8.442-276.47-143.524a15.257,15.257,0,0,1-11.16,6.948l-.815,136.236,303.5,13.309a15.436,15.436,0,0,1,1.2-4.527m-321-161.944L343.2,1129.877l80.016,166.493a15.42,15.42,0,0,1,16.027,2.786L566.881,1179.9c-.134-.138-.277-.263-.407-.408a15.365,15.365,0,0,1-3.866-11.943m2.705,278.081-76.89-70.307-54.682-50a15.467,15.467,0,0,1-6.824.618l33.593,179.589,102.217-45.216a15.43,15.43,0,0,1,2.585-14.684M440.636,1300.588a15.4,15.4,0,0,1,3.188,14.2l133.079,5.836.813-136.051a15.372,15.372,0,0,1-9.348-3.323Zm148.137,144.377a15.4,15.4,0,0,1,2.491,3.747l291.7-108.589a15.418,15.418,0,0,1-.648-4.1L578.89,1322.714l-.7,117.183a15.37,15.37,0,0,1,10.584,5.068m-12.584-5.041.7-117.3-133.762-5.865a15.238,15.238,0,0,1-7.338,7.727L504.7,1387.5l61.963,56.657c.111-.1.208-.219.323-.322a15.339,15.339,0,0,1,9.2-3.912m-66.931,303.067,63.353-273.022a15.248,15.248,0,0,1-9.1-7.815l-102.626,45.4L504.911,1742.9a15.5,15.5,0,0,1,4.347.092m-14.548,5.6a15.572,15.572,0,0,1,1.717-1.848,15.346,15.346,0,0,1,6.516-3.484L459.01,1508.383l-176.634,78.132A15.455,15.455,0,0,1,281.1,1599.8ZM279.358,1581.5a15.383,15.383,0,0,1,2.2,3.193l177.071-78.328L424.8,1325.5a15.341,15.341,0,0,1-4.57-2.143l-55.28,98.166-88.633,157.394a15.415,15.415,0,0,1,3.039,2.58m-4.777-3.572,144.055-255.811a15.608,15.608,0,0,1-1.12-1.122,15.363,15.363,0,0,1-2.971-4.9l-222.506,67.594,71.469,193.37a15.464,15.464,0,0,1,11.074.87m-17.009,2.443a15.4,15.4,0,0,1,4.055-2.63l-71.507-193.47L50.329,1426.733a15.461,15.461,0,0,1-1.806,11.477l207.321,144.021a15.487,15.487,0,0,1,1.729-1.863M34.954,1445.656,17.776,1639.985a15.358,15.358,0,0,1,12.456,10.969l222.517-56.326a15.439,15.439,0,0,1,1.941-10.764L47.37,1439.844a15.179,15.179,0,0,1-12.416,5.812m44.158-346.583L38.273,1415.129a15.32,15.32,0,0,1,11.466,9.694l139.688-42.435L84.485,1098.458a15.451,15.451,0,0,1-5.373.615m13.335-6.156a15.331,15.331,0,0,1-6.083,4.856l104.979,284.031,222.612-67.626a15.461,15.461,0,0,1,1.578-11.067Zm1.084-1.68,323.086,210.195a15.194,15.194,0,0,1,4.79-4.2l-80.629-167.768-245.69-42.187a15.364,15.364,0,0,1-1.557,3.961m216.8,6.74a15.351,15.351,0,0,1-3.947-9.581L95.45,1084.938c-.009.122-.023.243-.036.365l244.3,41.947-12.163-25.307a15.417,15.417,0,0,1-17.217-3.966m21.785,1.129a15.5,15.5,0,0,1-2.763,1.977l12.776,26.582,220.8,37.913c.01-.042.014-.084.025-.126l-226.815-72.186a15.332,15.332,0,0,1-4.024,5.841M682.532,713.034l-349.366,364.2c.027.029.057.053.084.084a15.405,15.405,0,0,1,3.514,14.044l226.815,72.186a15.388,15.388,0,0,1,18.115-9.343L689.338,716.9a15.328,15.328,0,0,1-6.807-3.869m8.772,4.25L583.6,1154.835a15.278,15.278,0,0,1,3.479,1.907l32.762-46.172L793.278,866.134a15.322,15.322,0,0,1-.615-23.418c.2-.177.406-.33.61-.5L702.455,714.4a15.378,15.378,0,0,1-11.151,2.888m17.084-12.248a15.329,15.329,0,0,1-4.409,8.051L794.9,841.054a15.434,15.434,0,0,1,13.144-1.454l44.252-105.123Zm161.2-36.854-161.114,31.2a15.43,15.43,0,0,1,.19,3.663L853.084,732.6l23.154-55a15.285,15.285,0,0,1-6.652-9.413M619.692,195.641,485.925,603.32a15.374,15.374,0,0,1,9.659,15.085l373.856,43.476a15.193,15.193,0,0,1,6.985-10.3l-246-456.719a15.451,15.451,0,0,1-10.738.775m15.508-4.215c-.282.3-.568.6-.878.876a15.377,15.377,0,0,1-2.141,1.6l246,456.722a15.437,15.437,0,0,1,8.886-1.19l43.142-188a15.393,15.393,0,0,1-7.923-24.016ZM947.574,105.5a15.412,15.412,0,0,1-2.747-16.305L802.4,22.828A15.382,15.382,0,0,1,778.7,27L635.157,170.22c.1.1.2.191.294.3a15.426,15.426,0,0,1,1.033,19.376L923.6,435.91c.228-.234.449-.473.7-.695a15.349,15.349,0,0,1,10.419-3.95L957.474,110.5a15.35,15.35,0,0,1-9.9-5m19.2,3.015a15.359,15.359,0,0,1-7.3,2.066L936.708,431.4a15.4,15.4,0,0,1,13.31,16.149l231.345,28.265a15.2,15.2,0,0,1,6.208-9.708ZM977.1,121.432l107.02,173.319a15.408,15.408,0,0,1,4.533-15.541c.037-.034.077-.061.115-.094Zm111.592,180.724L1182.635,454.3l-78.06-149.279a15.422,15.422,0,0,1-15.887-2.87m23.009-2.786a14.969,14.969,0,0,1-5.306,4.81l83.87,160.39a15.456,15.456,0,0,1,12.935.205l49.406-87.562Zm206.5-46.356a15.335,15.335,0,0,1-3.4-6.217l-200.547,41.71a15.469,15.469,0,0,1-1.534,9.141l140.865,77.822,67.641-119.883a15.407,15.407,0,0,1-3.029-2.573M1338.53,278.5l-5.738-20.727a15.457,15.457,0,0,1-9.83-1.194l-67.628,119.858,118.841,65.653a15.308,15.308,0,0,1,7.906-6.259ZM1375.7,460.732a15.328,15.328,0,0,1-3.611-7.083L1211.861,477.4c.014.157.035.313.043.47l185.043,2.453-5.489-15.126a15.411,15.411,0,0,1-15.762-4.468m26.6-7.5a15.324,15.324,0,0,1-8.959,11.3l5.745,15.829,257.442,3.414Zm266.854,45.919a15.368,15.368,0,0,1-9.244-13.336l-260.1-3.448,133.852,368.853a15.463,15.463,0,0,1,8.579-.009Zm98.563,394.123-215.825-33.895a15.415,15.415,0,0,1-21.491,20.065l-178.679,273.673,417.649-251.373a15.391,15.391,0,0,1-1.653-8.471" transform="matrix(0.174, -0.985, 0.985, 0.174, -1444.973, 8176.626)" fill="#afdadb"/>
    <path id="Caminho_21995" data-name="Caminho 21995" d="M25.753,26.882A15.425,15.425,0,1,1,26.882,5.1a15.426,15.426,0,0,1-1.129,21.785" transform="matrix(0.174, -0.985, 0.985, 0.174, -1695.381, 7635.958)" fill="#afdadb"/>
    <path id="Caminho_21996" data-name="Caminho 21996" d="M1648.627,139.079a10.829,10.829,0,0,1-9.613,7.912L1635.1,397.743a10.83,10.83,0,1,1-6.615,20.111L1547.54,531.243a10.827,10.827,0,1,1-15.984,14.349l-133.364,75.031a10.812,10.812,0,0,1-4.177,13.606l161.8,323.42a10.833,10.833,0,1,1-3.312,18.131l-321.16,296.635a10.833,10.833,0,0,1-6.843,20.526,11.009,11.009,0,0,1-1.51-.553l-78.529,140.26a10.807,10.807,0,0,1,.6,17.383l111.405,170.08,1.384-2.373-.31,4.01.67,1.023-.758.112-26.608,343.609c.351.061.7.137,1.051.234a10.838,10.838,0,1,1-9.964,2.248l-90.041-126.046c-.288-.055-.576-.112-.863-.192a10.794,10.794,0,0,1-3.83-1.936L946.048,2031.278a10.843,10.843,0,1,1-14.933-1.313L830.6,1877.9a10.807,10.807,0,0,1-15.489-6.478l-127.37,25.084a10.831,10.831,0,1,1-14.5-9.058l-36.924-139.1a10.8,10.8,0,0,1-12.562-11.776l-145.615-22.257a10.83,10.83,0,1,1-19.631-8.667l-86.547-68.6a10.815,10.815,0,0,1-13.564,1.7L256.786,1772.392a10.83,10.83,0,1,1-17.765,5.1,10.624,10.624,0,0,1,.424-1.222L19.937,1661.677A10.855,10.855,0,1,1,18,1647.687L282.022,1399.4a10.833,10.833,0,1,1,19.346-3.288,10.959,10.959,0,0,1-.612,1.642l106.727,69.7a10.831,10.831,0,0,1,15.33-1.99l213.956-212.323a10.842,10.842,0,1,1,17.06-.448l103.958,92.9a10.817,10.817,0,0,1,10.248-2.518l-.941-.334,118.777-334a10.809,10.809,0,0,1-1.318-18.908L815.986,858.413a10.832,10.832,0,1,1,4.282-16.871L1005.91,716.434a10.824,10.824,0,0,1,18.146-11.7l116.663-71.96a10.8,10.8,0,0,1,14.313-14.593L1286.917,404.26a10.832,10.832,0,0,1,2.33-18.437L1237.658,221.24a10.834,10.834,0,1,1,.408-20.992c.042.012.082.029.124.04l60-118.307,31.719-62.541a10.83,10.83,0,1,1,17.357-9.56l153.42,17.891c.035-.148.058-.3.1-.448a10.833,10.833,0,1,1,19.072,9.421l110.665,91.8a10.828,10.828,0,0,1,18.1,10.532M1343.612,18.993a10.825,10.825,0,0,1-12,1.518L1295.65,91.418l-55.587,109.6a10.764,10.764,0,0,1,2.544,1.784L1412.94,91.879Zm-325.4,702.7,17.277,100.893,143.725-15.945a10.395,10.395,0,0,1,.887-4.475L1024.4,717.276a10.857,10.857,0,0,1-6.182,4.415M822.716,848.2a10.521,10.521,0,0,1-1.022,4.776l233.689,136.761a10.851,10.851,0,0,1,5.991-4.146L1033.837,824.78ZM846.9,1864.849,788.088,1751.26,823.077,1857.8a10.826,10.826,0,0,1,13.01,8.316Zm93.87,163.111a10.793,10.793,0,0,1,3.83,1.935l181.152-190.477a10.864,10.864,0,0,1-2.436-4.879L850.009,1866.5l83.816,161.876a10.78,10.78,0,0,1,6.948-.414M1548.984,968.993a10.778,10.778,0,0,1,.222-3.732l-169.642-56.817a10.827,10.827,0,0,1-12.78,6.073l-.006,0-38.361,101.263ZM1512.577,40.954c-.23.029-.464.044-.7.058l12.229,155.308a10.7,10.7,0,0,1,8.475,4.287l26.8-16.646Zm-7,406.726-3.769,46.759c.339.059.679.133,1.017.226a10.775,10.775,0,0,1,5.282,3.325l28.288-20.395-12.671-255.067Zm-5.763,46.6,13.181-163.525,9.1-112.945c-.339-.06-.679-.133-1.017-.226a10.772,10.772,0,0,1-4.831-2.847L1357.522,344.524,1493.5,496.412a10.826,10.826,0,0,1,6.313-2.13m33.829-291.975A10.794,10.794,0,0,1,1530,216.123l99.6,182.364-69.578-212.569Zm89.851,203.314a10.783,10.783,0,0,1,4.4-6.1l-99.641-182.436a10.831,10.831,0,0,1-2.756.78L1538.325,476.2,1624.6,414a10.792,10.792,0,0,1-1.114-8.375m2.281,10-87.327,62.961,2.486,50.035a10.534,10.534,0,0,1,4.983,1.464l80.946-113.388a10.979,10.979,0,0,1-1.088-1.072M1532.887,531.7a10.87,10.87,0,0,1,6.044-2.992l-2.421-48.735-27.239,19.639a10.772,10.772,0,0,1-.46,11.7Zm-42.794-22.091-129.709,45.353L1385.1,614.7a10.791,10.791,0,0,1,9.814,1.768l96.948-104.148a10.883,10.883,0,0,1-1.772-2.706M1161.236,628.154a10.7,10.7,0,0,1-2.922,7.221l91.223,115.28L1379.677,631.58a10.849,10.849,0,0,1-2.146-5.439ZM768.583,1363.791l31.1,111a10.779,10.779,0,0,1,5.094.154,10.892,10.892,0,0,1,2.354.969l27.128-31.7L770.4,1362.99a10.889,10.889,0,0,1-1.813.8M368.469,1619.647a10.835,10.835,0,0,1,6.21,7.434l71.337-9.952-29.025-132.359a10.772,10.772,0,0,1-3.749-.344Zm50.494-135.223L448,1616.851l221.947-30.965a10.813,10.813,0,0,1,.375-3.38c.036-.127.084-.247.123-.372l-244.867-102.9a10.833,10.833,0,0,1-6.618,5.186m940.258-583.23a10.779,10.779,0,0,1,.5-1.388l-160.681-87.335a10.852,10.852,0,0,1-7.478,4.7l6.5,135.136,160.973-46.218a10.767,10.767,0,0,1,.192-4.893m-169.66-83.934a10.522,10.522,0,0,1-4.716-1.321L1069.658,986.711a10.788,10.788,0,0,1,2.294,1.8l124.13-35.64ZM1073.291,990.21a10.856,10.856,0,0,1,1.531,3.874l106.783,40.875,10.339,3.958a10.837,10.837,0,0,1,7.99-5.918l-3.755-78.074Zm117.932,50.595.007-.021-10.3-3.941L1075,996.292a10.707,10.707,0,0,1-2.329,6.484l45.681,81.988,73.2-37.229a10.774,10.774,0,0,1-.329-6.73m168.36-132.8-161.427,46.35,3.775,78.508a10.716,10.716,0,0,1,7.265,3.03l151.531-125.707a10.886,10.886,0,0,1-1.144-2.18m-134.36,363.882-23.6-217.382a10.732,10.732,0,0,1-9.19-5.178l-73.108,37.181L1223,1272.59a10.858,10.858,0,0,1,2.219-.7m-107.682-184.472-85.061,43.261a10.739,10.739,0,0,1-.808,8.654l113.894,82.6,73.679,53.431a10.837,10.837,0,0,1,2.015-1.8Zm12.253,734.865-30.253-94.733-18.7-58.552a10.806,10.806,0,0,1-12.451-6.752l-51.689,14.239L1128.33,1823.02a11.019,11.019,0,0,1,1.464-.736m-231.6-437.354,31.785,169.893a10.757,10.757,0,0,1,9.366,3.905l53.2-31.635-92.309-142.977a10.8,10.8,0,0,1-2.04.814m42.274,175.457a10.824,10.824,0,0,1,.175,10.111l129.282,81.335a10.744,10.744,0,0,1,1.911-1.921l-78.208-121.136Zm127.4,99.933a10.774,10.774,0,0,1,.991-6.792l-46.189-29.032-83.131-52.252a10.768,10.768,0,0,1-1.229,1.323l77.1,101.2Zm-131.151-85.542a10.763,10.763,0,0,1-11.943-.312L790.991,1732.183a10.884,10.884,0,0,1,2.39,3.747l219.937-60.587Zm-150.57,154.535a10.76,10.76,0,0,1,3.328,1.578l133.774-157.718a10.862,10.862,0,0,1-2.93-5.727l-124.141,9.818-11.126,151.808a10.9,10.9,0,0,1,1.094.242m134.015-163.861a10.792,10.792,0,0,1,.378-2.733c.076-.275.171-.54.266-.8L810.81,1491.541a10.844,10.844,0,0,1-8.7,4.68l-5.791,79.024Zm-107.809-77.179a10.735,10.735,0,0,1-.556,1.517l109.869,70.3a10.715,10.715,0,0,1,1.871-2.345l-88-111.926L808.8,1477.049a10.827,10.827,0,0,1,3.544,11.224M925.1,1556.511a10.909,10.909,0,0,1,2.365-1.159L896.19,1385.3a10.67,10.67,0,0,1-7.213-1.943l-52.128,60.914Zm94.219-411.971c-.156-.043-.3-.1-.456-.15L949.2,1275.251l-48.026,90.219a10.847,10.847,0,0,1,4.167,5.209l185.993-51.528-65.579-174.827a10.766,10.766,0,0,1-6.438.215M905.354,1378.351a10.76,10.76,0,0,1-3.445,4.68l92.349,143.04,134.289-79.856a10.778,10.778,0,0,1-.886-6.552Zm224.214,69.583-134.225,79.818,78.168,121.074a10.774,10.774,0,0,1,6.907-1.066l54.074-196.066a10.774,10.774,0,0,1-4.924-3.76M1088.958,1661.3a10.808,10.808,0,0,1-6.212,7.085l13.634,42.693,35.325,110.615a10.823,10.823,0,0,1,1.327-.189l2.037-180.476-51.771,7.677a10.831,10.831,0,0,1,5.66,12.594m34.855,167.067a10.77,10.77,0,0,1,2.9-4.166l-112.092-147.143-220.713,60.8a10.731,10.731,0,0,1,.032,3.677Zm-340.765-99.44,11.1-151.506-102.561,8.111a10.706,10.706,0,0,1-4.029,8.278l90.567,136.411a10.823,10.823,0,0,1,4.919-1.3m-91.614-145.389L794.3,1575.4l5.814-79.325a10.966,10.966,0,0,1-1.094-.242,10.783,10.783,0,0,1-4.8-2.809l-104.5,86.266a10.853,10.853,0,0,1,1.714,4.245m80.619-221.679,63.536,80.808,51.869-60.61a10.835,10.835,0,0,1-3.045-8.2L775.39,1357.027a10.761,10.761,0,0,1-3.337,4.832m3.815-6.783,108.859,16.81c.021-.082.033-.164.055-.247a10.834,10.834,0,0,1,13.323-7.563,11.058,11.058,0,0,1,1.3.46l107.419-201.792,10.191-19.144a10.759,10.759,0,0,1-1.807-1.239L774.293,1347.716a10.79,10.79,0,0,1,1.575,7.361m255.8-226.229,84.9-43.177-45.349-81.391a10.814,10.814,0,0,1-9.4,2.323l-34.761,117.809a10.806,10.806,0,0,1,4.619,4.435m168.816-319.522a11.038,11.038,0,0,1-.5,1.387l160.68,87.335a10.765,10.765,0,0,1,1.524-1.8L1249.3,753.579l-50.634,46.328a10.807,10.807,0,0,1,1.818,9.417m184.934-173.84a10.784,10.784,0,0,1-4.4-2.43L1250.78,752.226,1363.761,895a10.819,10.819,0,0,1,5.624-1.759l17.2-257.51a11.06,11.06,0,0,1-1.164-.25M1364.91,913.8a10.757,10.757,0,0,1-2.9-2.076L1210.5,1037.415a10.879,10.879,0,0,1,1.506,3.055l114.087-24.2Zm-152.488,128.623a10.807,10.807,0,0,1-8.808,11.906l23.6,217.34a10.8,10.8,0,0,1,2.063.164l95.974-253.342Zm4.514,237.193a10.862,10.862,0,0,1,1.132-2.637l-187.52-135.991a10.837,10.837,0,0,1-2.965,2.506l65.688,175.119,123.457-34.2a10.778,10.778,0,0,1,.209-4.794m-124.9,41.413-186.164,51.576a10.717,10.717,0,0,1,.008,3.816l222.308,61.312a10.8,10.8,0,0,1,5.408-5.909Zm44.379,131.195-53.653,194.538,52.327-7.759,2.108-186.675c-.26-.028-.521-.057-.781-.1m-1.387,369.3a10.048,10.048,0,0,1,3.442.951l116.132-199.174-117.533,17.426Zm-11.951,11.024a10.792,10.792,0,0,1,.115-1.8l-.423-.592-329.347-86.695a10.773,10.773,0,0,1-4.325,5.4L849.026,1864.6Zm-435.726,61.991,127.369-25.084a10.614,10.614,0,0,1,1.319-6.377l-78.389-53.807-53.827,79.946a10.869,10.869,0,0,1,3.528,5.321m129.816-33.111a10.86,10.86,0,0,1,4.008-3.007l-35.506-108.109a10.744,10.744,0,0,1-7.607-1.062l-39.295,58.362Zm-40.766-113.291a10.856,10.856,0,0,1-3.941-7.573l-127.127-2.2a10.957,10.957,0,0,1-.369,2.178,10.841,10.841,0,0,1-.829,2.109l92.984,63.826Zm-131.128-11.772,109.987,1.9-115.93-10.3a10.844,10.844,0,0,1,5.943,8.4m127.329,1.434c.057-.31.121-.62.206-.929a10.773,10.773,0,0,1,3.65-5.546L685.9,1594.919a10.8,10.8,0,0,1-13.89-3.173L477.679,1707.009a10.775,10.775,0,0,1,.879,4.661ZM670.989,1590.023a10.889,10.889,0,0,1-.766-2.157l-221.79,30.943,17.927,81.751a10.821,10.821,0,0,1,10.356,4.694ZM464.411,1701l-17.964-81.916-71.495,9.975a10.812,10.812,0,0,1-1.744,6.416l86.506,68.566a10.874,10.874,0,0,1,4.7-3.042M353.69,1626.681a10.825,10.825,0,0,1,12.881-7.661l44.591-134.67-154.6,285.034,100.25-131.846a10.826,10.826,0,0,1-3.122-10.856M252.344,1769.925a10.76,10.76,0,0,1,1.379.494l156.036-287.68a10.836,10.836,0,0,1-3.158-3.6l-130.237,58.5L251.6,1769.76c.248.05.495.1.742.165m174.219-293.064c-.051.186-.119.362-.179.544l244.832,102.883a10.843,10.843,0,0,1,7.431-5.517l-9.7-92.306L426.86,1475.31a10.8,10.8,0,0,1-.3,1.551m254.073,97.7a10.745,10.745,0,0,1,7.809,3.192l104.5-86.266a10.844,10.844,0,0,1-1.853-5.411l-120.133-3.55Zm110.523-90.484a10.594,10.594,0,0,1,4-7.146L650.2,1255.815a10.853,10.853,0,0,1-2.951,1.054l23.506,223.648Zm-139.29-229.357,144.959,221.114q.463-.246.948-.446l-31.142-111.141a10.82,10.82,0,0,1-10.181-17.169l-103.958-92.9c-.2.188-.41.367-.625.538m121.2,91.413,240.735-205.2a10.789,10.789,0,0,1,.156-13.853L897.231,1007.33a10.8,10.8,0,0,1-9.476,2.075l-118.769,333.98a10.738,10.738,0,0,1,4.083,2.746m127.8-344.337a10.765,10.765,0,0,1-2.2,4.139l114.156,117.107L921.8,999.4l-20.578.34a10.84,10.84,0,0,1-.356,2.059m115.749,123.03a10.791,10.791,0,0,1,8.463-1.171c.034.01.067.023.1.033l34.728-117.7a10.833,10.833,0,0,1-6.493-8.767l-129.16,2.134Zm36.762-129.6a10.416,10.416,0,0,1,.994-3.759L820.685,854.7a10.759,10.759,0,0,1-1.6,1.783L922.8,997.38Zm9.967-9.969a10.79,10.79,0,0,1,3.713.348c.262.072.513.163.764.253l115.362-171.031a10.861,10.861,0,0,1-3.745-6.2l-143.61,15.932ZM1188.7,795.694a10.789,10.789,0,0,1,8.619,2.736l50.737-46.422L1156.812,636.7a10.853,10.853,0,0,1-2.775,1.469Zm-27.615-169.54,216.424-2.012a10.748,10.748,0,0,1,5.746-8.676l-24.762-59.84-197.738,69.139a10.649,10.649,0,0,1,.33,1.39m198.533-73.04,129.816-45.391a10.772,10.772,0,0,1,.064-5.495,10.987,10.987,0,0,1,.451-1.281l-149.623-79.27-37.685-19.965a10.813,10.813,0,0,1-4.152,3.683Zm-55.568-154.5a10.684,10.684,0,0,1-.472,1.327l187.3,99.231a10.753,10.753,0,0,1,1.126-1.434L1355.972,345.791l-53.488,43.736a10.812,10.812,0,0,1,1.568,9.091m52.135-55.585L1514.98,213.191a10.847,10.847,0,0,1-1.794-4.979l-267.2,1.744a10.771,10.771,0,0,1-2.281,7.431ZM1243.94,204.321a10.894,10.894,0,0,1,1.72,3.637l267.512-1.745a10.641,10.641,0,0,1,2.634-6.19L1414.342,93.352Zm273.316-5.675a10.845,10.845,0,0,1,4.859-2.169L1509.868,40.941a11.056,11.056,0,0,1-1.517-.292,10.779,10.779,0,0,1-6.165-4.5l-86.139,56.1Zm-2.718-158.129,46.6,142.359,67.369-41.841a10.759,10.759,0,0,1,.746-10.948L1518.505,38.221a10.876,10.876,0,0,1-3.967,2.3m122.477,106.441a10.618,10.618,0,0,1-7.457-4.223l-67.783,42.1,69.753,213.105a10.8,10.8,0,0,1,1.574-.228ZM1530.573,543.851a10.779,10.779,0,0,1,1.021-10.621l-24.075-20.392a10.809,10.809,0,0,1-14.194.844l-96.949,104.146a10.971,10.971,0,0,1,.833,1.053Zm-138.346,91.274a10.783,10.783,0,0,1-3.648.744l-17.2,257.51a11.186,11.186,0,0,1,1.164.25,10.827,10.827,0,0,1,7.654,12.918l169.642,56.816a10.781,10.781,0,0,1,4.185-4.819Zm158.92,339.185a10.862,10.862,0,0,1-1.744-3.361L1327.574,1018,1232.7,1268.442Zm-329.9,317.1a10.834,10.834,0,0,1-3.979-5.076l-123.287,34.156,41.5,110.629a10.544,10.544,0,0,1,7.24.551Zm-77.852,159.714a10.811,10.811,0,0,1-4.19,1.225l-2.1,186.356,117.729-17.456Zm80.175,516.687a10.807,10.807,0,0,1,5.289-1.472l26.331-340.057-114.982,197.2a10.822,10.822,0,0,1-5.724,19.62Zm-295.206,54.353-80.475-155.422-11.562,1.352a10.781,10.781,0,0,1-4.052,8.7ZM675.177,1886.936a10.65,10.65,0,0,1,6.989,1.174l53.84-79.965-92.947-63.8a10.864,10.864,0,0,1-4.806,3.487ZM624.142,1734.6a10.815,10.815,0,0,1,7.379-7.332l-132.23-11.753ZM240.363,1774.49a10.844,10.844,0,0,1,9.25-4.943l24.639-230.964L21.085,1652.292a10.662,10.662,0,0,1-.229,7.609ZM19.371,1649.145a10.819,10.819,0,0,1,.9,1.323L274.5,1536.28l14.134-132.48c-.2-.042-.391-.076-.587-.129a10.77,10.77,0,0,1-4.733-2.742Zm280.384-249.661a10.837,10.837,0,0,1-9.14,4.561l-14,131.286,129.2-58.031a10.788,10.788,0,0,1,.613-8.151Zm124.507,67.356a10.853,10.853,0,0,1,2.663,6.471l241.81,7.146L645.257,1257.08a10.726,10.726,0,0,1-7.079-2.524ZM893.3,988.471a10.831,10.831,0,0,1,7.883,9.266l19.16-.317L818.787,859.456,886.326,988.9a10.766,10.766,0,0,1,6.979-.427M821.386,843.2a10.852,10.852,0,0,1,1.106,3.013L1033.5,822.8l-17.257-100.776a10.742,10.742,0,0,1-9.213-3.937ZM1025.1,706.432a10.785,10.785,0,0,1,.748,7.686,11,11,0,0,1-.5,1.4l155.708,84.887a10.855,10.855,0,0,1,5.693-4.276L1152.1,638.659a10.768,10.768,0,0,1-10.33-4.186Zm131.65-87.239a10.819,10.819,0,0,1,3.232,3.722l197.741-69.14-61.1-147.646a10.768,10.768,0,0,1-5.9.052,10.882,10.882,0,0,1-2.127-.839ZM1291.14,385.187A10.829,10.829,0,0,1,1301.189,388l53.448-43.7L1242.32,218.84a10.913,10.913,0,0,1-2.765,1.763Zm56.118-373.294A10.657,10.657,0,0,1,1345,17.546l69.648,73.223,86.6-56.394a10.78,10.78,0,0,1-.827-4.62Z" transform="matrix(0.174, -0.985, 0.985, 0.174, -1746.145, 8343.487)" fill="#afdadb" opacity="0.33"/>
  </g>
</svg>
